<svg version="1.1" id="Calque_1" xmlns="http://www.w3.org/2000/svg" viewBox="0 0 22 22">
    <path class="stroke-heart" d="M16.45,1c1.19,0,2.31,0.55,3.16,1.53c0.89,1.05,1.37,2.45,1.37,3.95c0,1.5-0.49,2.89-1.37,3.92l-1.54,1.79l-7.09,8.27
		l-7.07-8.27L2.38,10.4c-1.85-2.16-1.85-5.68,0-7.85c0.86-0.99,1.98-1.53,3.16-1.53c1.19,0,2.31,0.54,3.16,1.53l1.53,1.79l0.76,0.89
		l0.76-0.88l1.54-1.79C14.14,1.55,15.26,1,16.45,1 M16.45,0c-1.42,0-2.84,0.63-3.92,1.89l-1.54,1.79L9.46,1.89
		c-1.08-1.26-2.5-1.88-3.92-1.88c-1.42,0-2.83,0.62-3.92,1.88c-2.16,2.54-2.16,6.64,0,9.16l1.54,1.79L10.99,22l7.85-9.16l1.54-1.79
		c1.08-1.26,1.61-2.92,1.61-4.57c0-1.66-0.53-3.31-1.61-4.59C19.3,0.63,17.87,0,16.45,0L16.45,0z"/>
    <g class="fill-heart">
        <linearGradient id="SVGID_1_" x1="11.0002" y1="-5.4601" x2="3.43443" y2="27.9923"
                        gradientUnits="userSpaceOnUse">
            <stop offset="0" stop-color="#9356DC"/>
            <stop offset="1" stop-color="#FF79DA"/>
        </linearGradient>
        <path class="st1" d="M21.99,6.48c0,1.65-0.53,3.31-1.61,4.57l-1.54,1.79L10.99,22l-7.83-9.16l-1.54-1.79
		c-2.16-2.52-2.16-6.62,0-9.16c1.09-1.26,2.5-1.88,3.92-1.88c1.42,0,2.84,0.62,3.92,1.88l1.53,1.79l1.54-1.79
		c2.16-2.52,5.68-2.52,7.85,0C21.46,3.17,21.99,4.82,21.99,6.48z"/>
    </g>
</svg>
